<svg id="Layer_1" data-name="Layer 1" xmlns="http://www.w3.org/2000/svg" viewBox="0 0 1953.28 1074"><defs><style>.cls-1{fill:#9f9f9e;stroke:#231f20;}.cls-1,.cls-2{stroke-miterlimit:10;}.cls-2{fill:#636569;stroke:#000;stroke-width:0.75px;}.cls-3{font-size:264.31px;}.cls-3,.cls-4{fill:#231f20;font-family:CelticBold, Celtic;}.cls-4{font-size:176.69px;}</style></defs><path class="cls-1" d="M610.42,101.84l66.71,21s33.36,34.59,43.24,82.77c0,0,16.06,45.71,28.41,56.83l23.48,23.47,33.35,27.18,23.47,11.11s30.89,16.06,37.06,17.3l29.65,13.59L923,358.8,957.56,318l17.3-39.53L981,252.55l14.83-44.47s28.41-79.07,114.89-80.3l76.59,23.47L1238,163.61l38.3,9.88,39.53,3.7,32.12,24.71s96.36,106.24,97.6,207.55l-2.47,25.94-9.89,32.12-23.47,19.76-7.41,26-30.89,75.36-24.7,24.7-12.36,54.36s-69,200.06-124.25,295a278.21,278.21,0,0,1-17.82,27.39l-28.41,42L1123.1,1079l-51.88,34.59-68,16.06-19.76,3.71-5.36-4.94-4.94,2.88-9.88-7.83-8.24,2.47s-24.71,1.65-36.24-14.41c0,0-38.7-21.82-62.18-48.59,0,0-34.59-.41-44.47-36.65,0,0-41.59-39.94-81.12-44.88,0,0-72.89-53.54-79.89-59.3,0,0-37.06-77.83-76.59-86.89,0,0-130.54-114.48-123.54-124.36,0,0-42.42-96-74.13-109.13,0,0-84.41-128.06-91.82-179.13,0,0-32.54-154,36.64-228.95,0,0,4.53-7,16.06-8.24,0,0-.82-4.12,3.71-11.94,0,0,9.06-2.47,16.06,6.59,0,0-1.23-9.06,8.24-6.18L346.46,162s13.59-26.77,49.42-37.47l20.59,14.41-14.42-15.24s-4.94-13.59,9.06-22.24l31.3-7V89.07S439.12,78,472.88,82.89c0,0,2.47-7,23.06-11.11h11.94s3.3-10.71,12.36-11.12c0,0,37.06-3.3,61.36,14.41l20.59,19.35,4.53,7.83Z" transform="translate(115.14 -59.92)"/><path class="cls-2" d="M923,358.8,957.56,318l17.3-39.53L981,252.55l14.83-44.47s28.41-79.07,114.89-80.3l47.44,14.54-3,.28-39.53-6.17,2.47,13.59,2.47,14.82-11.12,7.41L1100.87,192l-11.12,60.53v40.77l-14.83,19.77-55.59,24.7-61.77,21H923" transform="translate(115.14 -59.92)"/><path class="cls-2" d="M1212,959.39c-.64,1.11-1.27,2.21-1.9,3.29a278.21,278.21,0,0,1-17.82,27.39l-28.41,42L1123.1,1079l-51.88,34.59-68,16.06-19.76,3.71-5.36-4.94-4.94,2.88-9.88-7.83-8.24,2.47s-24.71,1.65-36.24-14.41c0,0-38.7-21.82-62.18-48.59,0,0-34.59-.41-44.47-36.65,0,0-41.59-39.94-81.12-44.88,0,0-72.89-53.54-79.89-59.3,0,0-37.06-77.83-76.59-86.89,0,0-130.54-114.48-123.54-124.36,0,0-42.42-96-74.13-109.13,0,0-24.56-37.26-48.35-79.61l.18,1,28.41-1.23,16.06,46.94,28.41,19.77,46.95,14.82,44.47,29.65,8.65,29.65-1.24,37.06,11.12,61.77,14.83,22.24,32.12-6.18L582,808.47,614.13,827l25.94,13.59,29.65,8.65,24.71,23.47,24.7,2.47,71.66,42,66.71,63,24.7,37.06,43.24,32.12L986,1085.2l24.7,3.7,33.36,2.47,59.3-38.29,53.12-44.48,53.64-45.92Z" transform="translate(115.14 -59.92)"/><text class="cls-3" transform="translate(164.4 480.22)">one stone</text><text class="cls-4" transform="translate(672.47 644.71)">farm</text></svg>